<svg width="16" height="16" viewBox="0 0 16 16" fill="none" xmlns="http://www.w3.org/2000/svg">
<path d="M14.8457 5.9275e-05H1.50237C1.19962 -0.00302184 0.908009 0.114124 0.691529 0.325793C0.475048 0.537461 0.351378 0.826362 0.347656 1.1291V14.5263C0.352052 14.8285 0.476017 15.1168 0.692424 15.3279C0.908832 15.539 1.20006 15.6558 1.50237 15.6527H14.8457C15.1485 15.6551 15.4399 15.5376 15.6563 15.3258C15.8727 15.114 15.9964 14.8252 16.0004 14.5224V1.12526C15.995 0.823401 15.8707 0.535877 15.6545 0.32518C15.4383 0.114484 15.1476 -0.00235555 14.8457 5.9275e-05Z" fill="url(#paint0_linear_491_6991)"/>
<path d="M11.9178 4.4187C11.8417 4.37931 11.7675 4.33613 11.6957 4.28933C11.4869 4.1513 11.2955 3.98867 11.1256 3.80495C10.6998 3.31805 10.5409 2.82414 10.4827 2.47865H10.4847C10.4361 2.19133 10.4561 2.0058 10.4596 2.0058H8.5216V9.49873C8.5216 9.59902 8.5216 9.69881 8.51759 9.79709C8.51759 9.80912 8.51609 9.82015 8.51558 9.83369C8.51558 9.83871 8.51558 9.84472 8.51408 9.85024V9.85475C8.49373 10.1235 8.40763 10.3832 8.26335 10.6109C8.11908 10.8386 7.92106 11.0273 7.68671 11.1605C7.44223 11.2996 7.1657 11.3725 6.88442 11.3721C5.98184 11.3721 5.24974 10.636 5.24974 9.72689C5.24974 8.81729 5.98184 8.08118 6.88442 8.08118C7.05541 8.08118 7.22539 8.10826 7.38786 8.16141L7.39037 6.18776C6.89696 6.1241 6.39572 6.16343 5.91827 6.30324C5.44083 6.44306 4.99756 6.68033 4.61643 7.00009C4.2824 7.29019 4.00156 7.63635 3.78656 8.02301C3.70482 8.16392 3.39594 8.73104 3.35883 9.65067C3.33526 10.1722 3.49221 10.7137 3.56693 10.9368V10.9419C3.61356 11.0732 3.79608 11.5225 4.09293 11.9011C4.33231 12.205 4.61515 12.4719 4.93233 12.6934V12.6884L4.93685 12.6934C5.87453 13.3302 6.91501 13.2886 6.91501 13.2886C7.09502 13.2811 7.69825 13.2886 8.38321 12.9641C9.14288 12.6041 9.57512 12.0681 9.57512 12.0681C9.85146 11.7477 10.0712 11.3826 10.225 10.9885C10.4005 10.5272 10.4586 9.9746 10.4586 9.75396V5.77809C10.4822 5.79213 10.7956 5.99922 10.7956 5.99922C10.7956 5.99922 11.2469 6.28855 11.9504 6.47659C12.4549 6.61047 13.1353 6.63905 13.1353 6.63905V4.71505C12.8971 4.74112 12.4132 4.66591 11.9173 4.4192" fill="white"/>
<defs>
<linearGradient id="paint0_linear_491_6991" x1="0.347656" y1="7.82639" x2="16.0004" y2="7.82639" gradientUnits="userSpaceOnUse">
<stop stopColor="#A49341"/>
<stop offset="0.5" stopColor="#D5C38D"/>
<stop offset="1" stopColor="#A3923F"/>
</linearGradient>
</defs>
</svg>
